<svg width="32" height="33" viewBox="0 0 32 33" fill="none" xmlns="http://www.w3.org/2000/svg">
<path d="M25.9619 16.1723C25.9027 16.0027 25.7988 15.8448 25.657 15.7091C25.5152 15.5733 25.3388 15.4628 25.1392 15.3847L19.7759 13.2843L21.2156 5.42025C21.263 5.1477 21.1952 4.87043 21.0229 4.6314C20.8506 4.39236 20.5833 4.20491 20.2625 4.0981C19.9417 3.99128 19.5853 3.97106 19.2485 4.04057C18.9116 4.11008 18.6132 4.26543 18.3995 4.48256L7.32469 15.7347C7.17707 15.8875 7.07601 16.0651 7.02937 16.2538C6.98272 16.4424 6.99174 16.637 7.05574 16.8224C7.11858 17.0097 7.23561 17.1828 7.3976 17.3282C7.55959 17.4735 7.76211 17.5872 7.98918 17.6601L14.7448 19.798L13.3051 27.5745C13.2561 27.8536 13.3279 28.1376 13.5089 28.3805C13.6898 28.6233 13.9692 28.8107 14.3018 28.9123C14.4872 28.973 14.6865 29.0028 14.8872 28.9998C15.1478 28.9987 15.404 28.9468 15.6331 28.8487C15.8622 28.7505 16.057 28.6092 16.2003 28.4372L25.693 17.185C25.8267 17.0412 25.9199 16.8764 25.9663 16.7017C26.0127 16.527 26.0112 16.3465 25.9619 16.1723Z" fill="#F49B31"/>
</svg>
