<svg width="24" height="24" viewBox="0 0 24 24" fill="none" xmlns="http://www.w3.org/2000/svg">
<path d="M19.622 7.2423C19.049 7.4953 18.442 7.6623 17.82 7.7363C18.4754 7.34425 18.9659 6.72725 19.2 6.0003C18.5843 6.36587 17.9106 6.62325 17.208 6.7613C16.7357 6.25702 16.1102 5.92273 15.4286 5.81035C14.7469 5.69796 14.0472 5.81375 13.438 6.13974C12.8289 6.46574 12.3444 6.9837 12.0598 7.61323C11.7752 8.24276 11.7064 8.94864 11.864 9.6213C10.6167 9.55896 9.39645 9.23499 8.28249 8.67043C7.16853 8.10587 6.18576 7.31334 5.39798 6.3443C4.99579 7.03459 4.87222 7.85235 5.05248 8.63066C5.23275 9.40896 5.70327 10.0891 6.36798 10.5323C5.87018 10.5167 5.38332 10.3823 4.94798 10.1403V10.1803C4.94839 10.9045 5.19922 11.6064 5.65795 12.1668C6.11669 12.7272 6.75511 13.1118 7.46498 13.2553C7.00255 13.3807 6.51762 13.3992 6.04698 13.3093C6.24711 13.9327 6.63717 14.4779 7.16255 14.8687C7.68794 15.2594 8.32235 15.476 8.97698 15.4883C8.32636 15.9992 7.58142 16.3769 6.78475 16.5998C5.98808 16.8227 5.15529 16.8864 4.33398 16.7873C5.76789 17.7095 7.43713 18.199 9.14198 18.1973C14.912 18.1973 18.067 13.4173 18.067 9.2723C18.067 9.1373 18.063 9.0003 18.057 8.8673C18.6711 8.42333 19.201 7.87238 19.622 7.2423Z" fill="#F49B31"/>
<path d="M19.622 7.2423C19.049 7.4953 18.442 7.6623 17.82 7.7363C18.4754 7.34425 18.9659 6.72725 19.2 6.0003C18.5843 6.36587 17.9106 6.62325 17.208 6.7613C16.7357 6.25702 16.1102 5.92273 15.4286 5.81035C14.7469 5.69796 14.0472 5.81375 13.438 6.13974C12.8289 6.46574 12.3444 6.9837 12.0598 7.61323C11.7752 8.24276 11.7064 8.94864 11.864 9.6213C10.6167 9.55896 9.39645 9.23499 8.28249 8.67043C7.16853 8.10587 6.18576 7.31334 5.39798 6.3443C4.99579 7.03459 4.87222 7.85235 5.05248 8.63066C5.23275 9.40896 5.70327 10.0891 6.36798 10.5323C5.87018 10.5167 5.38332 10.3823 4.94798 10.1403V10.1803C4.94839 10.9045 5.19922 11.6064 5.65795 12.1668C6.11669 12.7272 6.75511 13.1118 7.46498 13.2553C7.00255 13.3807 6.51762 13.3992 6.04698 13.3093C6.24711 13.9327 6.63717 14.4779 7.16255 14.8687C7.68794 15.2594 8.32235 15.476 8.97698 15.4883C8.32636 15.9992 7.58142 16.3769 6.78475 16.5998C5.98808 16.8227 5.15529 16.8864 4.33398 16.7873C5.76789 17.7095 7.43713 18.199 9.14198 18.1973C14.912 18.1973 18.067 13.4173 18.067 9.2723C18.067 9.1373 18.063 9.0003 18.057 8.8673C18.6711 8.42333 19.201 7.87238 19.622 7.2423Z" fill="url(#paint0_linear_1053_12620)" fill-opacity="0.24"/>
<defs>
<linearGradient id="paint0_linear_1053_12620" x1="11.978" y1="5.7673" x2="11.978" y2="18.1973" gradientUnits="userSpaceOnUse">
<stop stop-color="white"/>
<stop offset="1" stop-color="white" stop-opacity="0"/>
</linearGradient>
</defs>
</svg>
