<svg width="32" height="33" viewBox="0 0 32 33" fill="none" xmlns="http://www.w3.org/2000/svg">
<path d="M10.75 7.2998C11.8772 7.2998 12.9582 7.74757 13.7552 8.5446C14.5522 9.34163 15 10.4226 15 11.5498V15.7998H10.75C9.62283 15.7998 8.54183 15.352 7.7448 14.555C6.94777 13.758 6.5 12.677 6.5 11.5498C6.5 10.4226 6.94777 9.34163 7.7448 8.5446C8.54183 7.74757 9.62283 7.2998 10.75 7.2998ZM10.75 17.7998H15V22.0498C15 22.8904 14.7507 23.7121 14.2837 24.411C13.8168 25.1099 13.153 25.6546 12.3764 25.9763C11.5998 26.298 10.7453 26.3821 9.92087 26.2181C9.09645 26.0542 8.33917 25.6494 7.7448 25.055C7.15042 24.4606 6.74565 23.7034 6.58166 22.8789C6.41768 22.0545 6.50184 21.2 6.82351 20.4234C7.14519 19.6468 7.68992 18.9831 8.38883 18.5161C9.08774 18.0491 9.90943 17.7998 10.75 17.7998ZM21.25 7.2998C22.3772 7.2998 23.4582 7.74757 24.2552 8.5446C25.0522 9.34163 25.5 10.4226 25.5 11.5498C25.5 12.677 25.0522 13.758 24.2552 14.555C23.4582 15.352 22.3772 15.7998 21.25 15.7998H17V11.5498C17 10.4226 17.4478 9.34163 18.2448 8.5446C19.0418 7.74757 20.1228 7.2998 21.25 7.2998ZM17 17.7998H21.25C22.0906 17.7998 22.9123 18.0491 23.6112 18.5161C24.3101 18.9831 24.8548 19.6468 25.1765 20.4234C25.4982 21.2 25.5823 22.0545 25.4183 22.8789C25.2544 23.7034 24.8496 24.4606 24.2552 25.055C23.6608 25.6494 22.9036 26.0542 22.0791 26.2181C21.2547 26.3821 20.4002 26.298 19.6236 25.9763C18.847 25.6546 18.1833 25.1099 17.7163 24.411C17.2493 23.7121 17 22.8904 17 22.0498V17.7998Z" fill="#F49B31"/>
<path d="M10.75 7.2998C11.8772 7.2998 12.9582 7.74757 13.7552 8.5446C14.5522 9.34163 15 10.4226 15 11.5498V15.7998H10.75C9.62283 15.7998 8.54183 15.352 7.7448 14.555C6.94777 13.758 6.5 12.677 6.5 11.5498C6.5 10.4226 6.94777 9.34163 7.7448 8.5446C8.54183 7.74757 9.62283 7.2998 10.75 7.2998ZM10.75 17.7998H15V22.0498C15 22.8904 14.7507 23.7121 14.2837 24.411C13.8168 25.1099 13.153 25.6546 12.3764 25.9763C11.5998 26.298 10.7453 26.3821 9.92087 26.2181C9.09645 26.0542 8.33917 25.6494 7.7448 25.055C7.15042 24.4606 6.74565 23.7034 6.58166 22.8789C6.41768 22.0545 6.50184 21.2 6.82351 20.4234C7.14519 19.6468 7.68992 18.9831 8.38883 18.5161C9.08774 18.0491 9.90943 17.7998 10.75 17.7998ZM21.25 7.2998C22.3772 7.2998 23.4582 7.74757 24.2552 8.5446C25.0522 9.34163 25.5 10.4226 25.5 11.5498C25.5 12.677 25.0522 13.758 24.2552 14.555C23.4582 15.352 22.3772 15.7998 21.25 15.7998H17V11.5498C17 10.4226 17.4478 9.34163 18.2448 8.5446C19.0418 7.74757 20.1228 7.2998 21.25 7.2998ZM17 17.7998H21.25C22.0906 17.7998 22.9123 18.0491 23.6112 18.5161C24.3101 18.9831 24.8548 19.6468 25.1765 20.4234C25.4982 21.2 25.5823 22.0545 25.4183 22.8789C25.2544 23.7034 24.8496 24.4606 24.2552 25.055C23.6608 25.6494 22.9036 26.0542 22.0791 26.2181C21.2547 26.3821 20.4002 26.298 19.6236 25.9763C18.847 25.6546 18.1833 25.1099 17.7163 24.411C17.2493 23.7121 17 22.8904 17 22.0498V17.7998Z" fill="url(#paint0_linear_1053_12736)" fill-opacity="0.24"/>
<defs>
<linearGradient id="paint0_linear_1053_12736" x1="16" y1="7.2998" x2="16" y2="26.2998" gradientUnits="userSpaceOnUse">
<stop stop-color="white"/>
<stop offset="1" stop-color="white" stop-opacity="0"/>
</linearGradient>
</defs>
</svg>
